# xmcd CD database file
#
# Track frame offsets:
#	150
#	17580
#	21614
#	40748
#	49941
#	70596
#	75750
#	99997
#	105176
#	124420
#	131170
#	142134
#	151967
#	177128
#	185621
#	220702
#	226450
#	252814
#	257865
#	278476
#	288870
#	316234
#
# Disc length: 4293 seconds
#
# Revision: 0
# Processed by: cddbd v1.5.1PL2 Copyright (c) Steve Scherf et al.
# Submitted via: CDex 1.51
#
DISCID=2b10c316
DTITLE=El Emporio de la Impericia - -
DYEAR=2005
DGENRE=Jazz
TTITLE0=La Gran Jugada
TTITLE1=Trece
TTITLE2=Salim 
TTITLE3=Quince 
TTITLE4=Sala de deambuladores 
TTITLE5=Diecisiete 
TTITLE6=Dale de comer a Ramón 
TTITLE7=Diecinueve 
TTITLE8=Las viejas y las nuevas 
TTITLE9=Veintiuno 
TTITLE10=La siesta de los gatos
TTITLE11=Uno 
TTITLE12=Corsito 
TTITLE13=Tres 
TTITLE14=El Jefe 
TTITLE15=Cinco 
TTITLE16=Cicatriz 
TTITLE17=Siete 
TTITLE18=Pendenciero 
TTITLE19=Nueve 
TTITLE20=Una anguila, un piano-coctel, Yoel, Noel y Citroen
TTITLE21=Canción de cuna
EXTD=YEAR: 2005
EXTT0=
EXTT1=
EXTT2=
EXTT3=
EXTT4=
EXTT5=
EXTT6=
EXTT7=
EXTT8=
EXTT9=
EXTT10=
EXTT11=
EXTT12=
EXTT13=
EXTT14=
EXTT15=
EXTT16=
EXTT17=
EXTT18=
EXTT19=
EXTT20=
EXTT21=
PLAYORDER=
